<?xml version="1.0" encoding="UTF-8" standalone="no"?>
<svg
   enable-background="new 0 0 200.004 200.004"
   height="200.004"
   version="1.1"
   viewBox="0 0 200.004 200.004"
   width="200.004"
   id="svg14"
   xmlns="http://www.w3.org/2000/svg"
   xmlns:svg="http://www.w3.org/2000/svg">
  <defs
     id="defs18" />
  <g
     id="g1179">
    <circle
       style="fill:#ffffff;fill-opacity:1;stroke-width:1.21205"
       id="path42"
       cx="100.02119"
       cy="100.0212"
       r="75" />
    <path
       d="M 200,99.998 C 200,155.229 155.232,200 100.002,200 44.776,200 0,155.229 0,99.998 0,44.768 44.776,0 100.002,0 155.232,0 200,44.768 200,99.998 Z M 100.002,25.492 c -41.152,0 -74.51,33.358 -74.51,74.506 0,41.148 33.357,74.51 74.51,74.51 41.148,0 74.506,-33.361 74.506,-74.51 0,-41.148 -33.358,-74.506 -74.506,-74.506 z"
       fill="#005bac"
       id="path2" />
    <path
       d="m 72.059,71.7 c 0.113,0 0.209,-0.017 0.309,-0.017 l 12.42,0.108 V 60.687 c 0.063,-0.522 -0.029,-1.157 -0.029,-1.691 0,-7.018 -5.69,-12.7 -12.7,-12.7 -6.801,0 -12.337,5.348 -12.663,12.061 h -0.037 v 13.327 h 12.383 c 0.109,0 0.209,0.016 0.317,0.016 z m 55.652,0.881 c 7.014,0 12.7,-5.682 12.7,-12.704 0,-7.018 -5.687,-12.713 -12.7,-12.713 -7.026,0 -12.7,5.695 -12.7,12.713 0,7.022 5.674,12.704 12.7,12.704 z m 0,1.537 c -9.828,0 -17.806,7.861 -17.99,17.635 H 90.058 c 0.008,-0.238 0.017,-0.476 0.017,-0.701 0,-9.945 -8.058,-17.994 -17.986,-17.994 -9.944,0 -18.002,8.049 -18.002,17.994 0,0.68 0.042,1.356 0.112,2.024 v 50.901 h 35.758 v -34.352 h 19.869 v 35.638 h 35.762 V 94.141 c 0.071,-0.672 0.117,-1.344 0.117,-2.038 0,-9.936 -8.058,-17.985 -17.994,-17.985 z"
       fill="#00a84e"
       id="path4" />
    <path
       d="M 19.213,101.53 H 6.559 v 1.745 h 9.056 l -9.056,4.417 v 1.786 h 12.654 v -1.744 h -8.98 l 8.98,-4.259 z m -9.849,21.865 11.815,-5.729 -0.338,-1.816 -13.076,-1.135 0.334,1.816 2.551,0.175 0.701,3.79 -2.317,1.082 z m 8.939,-6.142 -4.88,2.246 -0.563,-2.609 z m 5.03,8.191 -0.985,-2.978 -2.184,0.752 0.985,2.98 -9.836,3.215 0.551,1.666 9.836,-3.215 0.956,2.902 2.184,-0.752 z m 2.602,7.319 -11.51,5.252 0.727,1.595 11.514,-5.252 z m 3.69,7.044 c -0.894,-1.474 -2.411,-1.573 -4.572,-0.268 -0.723,0.437 -3.603,2.17 -4.338,2.613 -2.174,1.312 -2.816,2.7 -1.929,4.18 0.293,0.488 1.779,2.951 1.779,2.951 0.889,1.478 2.423,1.564 4.601,0.259 0.723,-0.434 3.616,-2.174 4.338,-2.609 2.159,-1.301 2.797,-2.694 1.904,-4.175 -0.295,-0.489 -1.481,-2.453 -1.783,-2.951 z m -7.189,3.359 c 0,0 2.246,-1.352 2.697,-1.623 1.328,-0.801 2.475,-0.874 3.001,0 0.178,0.295 0.876,1.457 1.056,1.758 0.52,0.868 -0.087,1.816 -1.419,2.621 -0.45,0.271 -2.246,1.354 -2.697,1.625 -1.348,0.81 -2.485,0.773 -3.01,-0.097 -0.179,-0.297 -0.883,-1.461 -1.061,-1.753 -0.527,-0.869 0.093,-1.717 1.433,-2.531 z m 12.587,5.035 -9.603,8.246 1.136,1.323 6.872,-5.899 -3.991,9.252 1.161,1.353 9.602,-8.245 -1.135,-1.319 -6.818,5.849 4.045,-9.08 z m 5.92,24.053 5.394,-11.971 -1.419,-1.177 -10.767,7.511 1.424,1.182 2.071,-1.503 2.964,2.464 -1.081,2.316 z m 2.923,-10.441 -2.167,4.604 -1.966,-1.628 z m 3.286,12.478 5.912,-8.65 -1.449,-0.994 -7.168,10.426 5.661,3.895 1.257,-1.779 z m 20.473,7.715 -2.117,4.835 1.607,0.701 5.068,-11.599 -1.607,-0.701 -2.037,4.802 -4.066,-1.778 2.033,-4.801 -1.607,-0.702 -5.068,11.599 1.611,0.701 2.117,-4.83 z m 6.008,7.594 5.527,1.754 0.727,-2.292 -5.527,-1.753 0.922,-2.898 4.876,1.545 0.626,-1.986 -4.876,-1.549 0.873,-2.785 5.348,1.695 0.676,-2.096 -7.018,-2.23 -3.829,12.066 z m 19.159,3.799 -1.478,-13.042 -1.82,-0.289 -5.419,11.957 1.824,0.289 1.011,-2.352 3.807,0.602 0.255,2.547 z m -2.822,-10.47 0.488,5.577 -2.776,-0.45 z m 9.155,8.262 v -10.455 h -1.753 v 12.654 h 6.872 v -2.199 z m 9.41,-10.742 -3.123,0.316 0.247,2.393 3.118,-0.316 1.031,10.199 1.75,-0.18 -1.035,-10.195 3.043,-0.309 -0.242,-2.393 z m 15.858,4.559 1.314,5.002 1.695,-0.447 -3.215,-12.24 -1.699,0.446 1.294,4.914 -4.296,1.127 -1.29,-4.913 -1.699,0.445 3.215,12.242 1.699,-0.447 -1.315,-5.002 z m 8.253,-10.926 4.992,11.627 1.611,-0.693 -4.996,-11.623 z m 4.827,-2.221 6.55,10.825 1.495,-0.901 -4.689,-7.749 8.467,5.461 1.529,-0.927 -6.551,-10.826 -1.49,0.902 4.646,7.686 -8.292,-5.481 z m 17.287,-5.615 c -0.697,0.554 -1.505,1.193 -2.408,1.916 -0.368,0.295 -0.861,-0.086 -1.332,-0.676 -0.536,-0.671 -0.955,-1.294 -0.551,-1.616 0.477,-0.379 1.624,-1.29 2.083,-1.657 0.413,-0.33 0.89,-0.055 1.457,0.65 l 1.374,-1.094 c -0.873,-1.094 -1.369,-1.671 -1.934,-1.937 -0.551,-0.26 -1.077,-0.187 -1.586,0.217 -0.683,0.541 -2.342,1.866 -2.563,2.042 -1.405,1.117 -1.458,2.492 -0.159,4.125 0.076,0.096 0.698,0.876 0.981,1.23 1.198,1.497 2.099,1.557 3.257,0.635 0.888,-0.707 1.65,-1.341 2.354,-1.903 0.427,-0.341 0.878,-0.227 1.34,0.354 0.649,0.816 1.272,1.822 0.852,2.158 -0.507,0.404 -1.717,1.364 -2.25,1.791 -0.393,0.314 -0.704,0.105 -1.169,-0.475 -0.112,-0.14 -0.238,-0.297 -0.376,-0.473 l -1.374,1.094 c 0.301,0.426 0.576,0.831 0.836,1.148 1.12,1.372 1.908,1.406 2.896,0.768 0.715,-0.463 1.211,-0.964 1.625,-1.293 0.413,-0.33 0.947,-0.761 1.615,-1.291 0.998,-0.793 0.888,-1.956 -0.342,-3.494 -0.25,-0.313 -0.965,-1.211 -1.178,-1.479 -1.242,-1.559 -2.238,-1.702 -3.448,-0.74 z m 1.103,-7.754 6.207,6.004 c 1.921,1.854 3.597,2.064 5.006,0.605 0.177,-0.183 1.119,-1.156 1.266,-1.307 1.431,-1.476 1.182,-3.152 -0.748,-5.014 l -6.207,-6.004 -1.22,1.261 5.979,5.69 c 1.052,1.002 1.235,1.854 0.576,2.539 -0.2,0.208 -0.909,0.94 -1.114,1.152 -0.65,0.674 -1.495,0.5 -2.547,-0.498 l -5.979,-5.689 z m 19.087,-8.437 2.784,1.9 0.99,-1.453 -2.785,-1.899 c -0.584,-0.397 -1.223,-0.589 -1.924,-0.581 -0.205,-0.63 -0.789,-1.278 -1.758,-1.932 -0.225,-0.151 -1.112,-0.755 -1.34,-0.91 -1.759,-1.196 -3.03,-1.234 -3.813,-0.102 -0.177,0.256 -3.314,4.86 -3.314,4.86 l 10.453,7.131 0.99,-1.448 -3.808,-2.598 1.704,-2.505 c 0.232,-0.334 0.5,-0.563 0.813,-0.677 0.324,-0.095 0.662,-0.024 1.008,0.214 z m -6.479,-2.709 c 0.109,-0.158 0.24,-0.352 0.4,-0.588 0.265,-0.391 0.842,-0.273 1.733,0.334 0.879,0.599 1.202,1.1 0.938,1.494 -0.16,0.239 -2.104,3.081 -2.104,3.081 l -2.672,-1.825 z m 16.892,-8.567 -12.826,-2.785 -0.855,1.637 9.586,8.963 0.859,-1.637 -1.904,-1.711 1.791,-3.415 2.493,0.58 z m -10.818,-0.685 4.952,1.161 -1.182,2.259 z m 0.668,-7.752 11.928,4.229 0.585,-1.645 -8.533,-3.027 10.011,-1.135 0.598,-1.688 -11.928,-4.225 -0.584,1.645 8.467,2.998 -9.887,1.014 z m 7.971,-19 c -1.941,-0.36 -3.081,0.308 -3.402,2.004 -0.106,0.563 -0.522,2.817 -0.631,3.394 -0.317,1.69 0.764,2.771 3.244,3.231 0.835,0.155 4.137,0.767 4.98,0.923 2.497,0.464 3.901,-0.15 4.217,-1.841 0.105,-0.564 0.529,-2.836 0.635,-3.412 0.313,-1.712 -0.594,-2.772 -2.73,-3.176 -0.715,-0.135 -0.789,-0.168 -1.494,-0.297 l -0.322,1.725 c 0.396,0.074 0.748,0.192 1.148,0.267 1.186,0.22 1.4,0.802 1.211,1.829 -0.063,0.342 -0.313,1.695 -0.376,2.033 -0.187,0.998 -1.356,1.257 -2.901,0.973 -0.518,-0.096 -2.58,-0.481 -3.094,-0.576 -1.527,-0.282 -2.402,-0.928 -2.226,-1.934 0.06,-0.338 0.309,-1.67 0.372,-2.012 0.186,-1.002 0.785,-1.415 1.795,-1.229 0.338,0.063 0.188,-0.012 0.534,0.051 l 0.321,-1.725 c -0.664,-0.125 -0.631,-0.107 -1.281,-0.228 z m 10.395,-4.932 v -5.803 h -2.301 v 5.803 h -2.927 v -5.118 h -2.201 v 5.118 h -3.025 v -5.611 h -2.2 v 7.365 h 12.654 z"
       id="path6"
       style="fill:#ffffff" />
    <path
       d="m 171.944,54.445 -1.294,-1.612 2.029,-1.653 1.729,2.146 -1.708,1.377 c -0.117,0.113 -0.233,0.125 -0.354,0.075 -0.125,-0.049 -0.264,-0.153 -0.402,-0.333 z m -5.782,-7.076 -1.145,-1.423 2.076,-1.695 1.594,1.975 -1.766,1.444 c -0.1,0.087 -0.217,0.104 -0.338,0.063 -0.124,-0.055 -0.267,-0.176 -0.421,-0.364 z m -10.266,-4.334 1.398,1.733 c 0.492,0.58 0.974,0.931 1.448,1.043 0.456,0.108 0.91,0.008 1.336,-0.347 l 4.313,-3.482 c 0.208,-0.167 0.34,-0.413 0.371,-0.714 0.032,-0.313 -0.021,-0.68 -0.146,-1.106 0.393,0.213 0.76,0.332 1.103,0.326 0.354,-0.006 0.677,-0.125 0.978,-0.367 l 4.947,-4.004 -4.488,-5.578 -14.449,11.698 1.648,2.05 z m 5.965,-4.834 0.436,0.539 c 0.271,0.334 0.453,0.6 0.547,0.797 0.099,0.208 0.096,0.342 0.024,0.417 l -3.983,3.219 c -0.116,0.088 -0.221,0.125 -0.309,0.125 -0.096,0 -0.171,-0.054 -0.25,-0.146 l -1.015,-1.265 z m 5.534,-4.472 1.239,1.545 -3.854,3.115 c -0.112,0.092 -0.227,0.123 -0.363,0.067 -0.121,-0.049 -0.255,-0.163 -0.405,-0.351 l -0.797,-0.985 z m 5.707,5.419 -0.906,-0.284 c -0.18,-0.058 -0.365,-0.17 -0.551,-0.321 -0.198,-0.162 -0.393,-0.375 -0.619,-0.647 l -0.371,-0.468 -1.373,1.102 1.152,1.428 c 0.379,0.48 0.563,0.649 0.914,0.922 0.39,0.303 2.133,0.422 2.65,0.581 l 4.564,5.782 c 0.054,0.551 -0.135,2.407 0.074,2.847 0.191,0.403 0.268,0.581 0.643,1.064 l 1.27,1.616 1.383,-1.085 -0.498,-0.643 c -0.217,-0.271 -0.379,-0.507 -0.496,-0.747 -0.104,-0.211 -0.163,-0.422 -0.18,-0.609 l -0.066,-0.939 0.213,-1.632 -6.171,-7.799 z m -11.182,13.611 2.58,3.361 0.009,-0.025 0.029,0.042 c 0.368,0.455 0.752,0.769 1.173,0.931 0.402,0.155 0.814,0.155 1.236,0.004 l 1.85,-0.709 -1.061,2.321 c -0.129,0.342 -0.182,0.672 -0.163,0.952 0.02,0.296 0.121,0.539 0.284,0.76 l 1.252,1.541 1.277,-1.031 -0.446,-0.555 c -0.108,-0.142 -0.187,-0.296 -0.192,-0.438 -0.006,-0.15 0.029,-0.3 0.125,-0.455 0.581,-1.991 0.527,-1.515 -0.463,-3.315 l 1.411,-0.601 0.776,0.969 c 0.414,0.522 0.793,0.839 1.148,0.964 0.347,0.122 0.685,0.079 0.98,-0.163 l 3.633,-2.956 -4.993,-6.191 -4.534,3.674 1.165,1.444 -2.985,1.236 c -0.213,0.063 -0.384,0.081 -0.529,0.059 -0.13,-0.02 -0.256,-0.079 -0.318,-0.163 l -0.872,-1.202 -0.363,-0.472 c -0.108,-0.134 -0.173,-0.271 -0.175,-0.401 -0.002,-0.138 0.029,-0.28 0.125,-0.438 0.58,-1.724 0.73,-1.286 -0.205,-2.876 l 1.332,-0.56 0.797,0.99 c 0.393,0.484 0.761,0.786 1.107,0.906 0.343,0.118 0.668,0.059 0.973,-0.184 l 3.689,-3.002 -4.783,-5.941 -4.605,3.729 1.023,1.265 -2.869,1.24 c -0.204,0.067 -0.375,0.096 -0.51,0.092 -0.133,-0.013 -0.225,-0.054 -0.305,-0.154 l -0.571,-0.71 -1.224,0.985 1.152,1.432 c 0.359,0.438 0.746,0.742 1.141,0.885 0.402,0.146 0.81,0.15 1.23,-0.004 l 1.236,-0.497 -0.705,1.604 c -0.135,0.325 -0.169,0.638 -0.15,0.91 0.019,0.275 0.117,0.518 0.283,0.726 l 0.018,0.025 h -0.013 z m 7.039,-12.909 10.195,12.88 -1.265,0.998 -10.195,-12.884 z M 72.823,6.884 71.98,11.702 c -0.063,0.309 -0.146,0.551 -0.25,0.723 -0.113,0.163 -0.25,0.259 -0.413,0.288 l -1.044,0.18 0.367,2.163 1.812,-0.309 2.063,12.22 2.709,-0.455 -2.534,-14.955 1.082,-5.168 z m 8.567,-0.509 0.276,1.511 3.941,-0.639 0.267,1.537 -4.818,0.785 0.292,1.599 4.822,-0.789 0.268,1.516 -3.941,0.639 0.259,1.511 3.945,-0.639 0.292,1.599 -4.338,0.706 0.292,1.603 4.317,-0.71 0.268,1.449 -4.814,0.785 0.284,1.599 4.813,-0.785 0.163,0.885 3.056,-0.501 -0.154,-0.881 5.824,-0.952 -0.28,-1.599 -5.841,0.956 -0.242,-1.461 5.332,-0.864 -0.276,-1.595 -5.344,0.864 -0.284,-1.595 2.672,-0.442 c 0.789,-0.121 1.364,-0.34 1.732,-0.63 0.363,-0.286 0.505,-0.655 0.426,-1.106 L 94.307,9.053 95.831,8.803 95.551,7.208 94.014,7.458 93.475,4.406 88.403,5.237 88.194,4.11 85.142,4.607 85.33,5.734 Z m 7.281,0.368 2.4,-0.393 0.28,1.536 -2.413,0.393 z m -10.976,9.017 -0.259,0.042 0.234,1.336 0.668,-0.1 c 0.171,0.054 0.309,0.167 0.355,0.501 0.346,1.586 0.752,3.16 1.04,4.755 0.038,0.209 0.009,0.464 -0.067,0.572 -0.146,0.209 -0.334,0.326 -0.543,0.363 l -0.484,0.1 0.309,1.804 1.419,-0.247 c 0.459,-0.087 0.839,-0.271 1.123,-0.563 0.234,-0.241 0.735,-1.632 0.735,-1.632 0.948,0.526 2.676,1.52 3.62,1.356 l 12.625,-2.116 -0.3,-1.812 -10.81,1.787 c -1.094,0.18 -5.857,-1.411 -5.857,-2.2 -0.234,-1.925 -0.739,-3.954 -1.712,-4.041 0.396,-0.058 0.731,-0.635 0.677,-1.027 L 79.324,7.703 C 79.261,7.31 78.898,7.031 78.501,7.085 l -2.617,0.384 0.271,1.812 0.497,-0.083 c 0.33,-0.058 0.689,-0.046 0.747,0.409 l 0.948,5.486 c 0.042,0.308 -0.255,0.605 -0.652,0.667 z m 11.528,-5.882 2.417,-0.396 0.205,1.194 c 0.025,0.108 -0.021,0.2 -0.125,0.284 -0.096,0.058 -0.25,0.121 -0.468,0.15 L 89.49,11.398 Z M 46.25,29.884 c 5.202,-3.198 10.319,-6.404 15.543,-9.569 0.578,-0.35 0.956,-0.722 1.123,-1.114 0.167,-0.394 0.109,-0.81 -0.158,-1.24 L 59.439,12.563 39.44,24.841 48.283,39.244 c 0.288,0.484 0.659,0.753 1.115,0.81 0.442,0.056 0.977,-0.108 1.595,-0.484 l 8.404,-5.164 -1.098,-1.808 -6.947,4.279 c -0.196,0.117 -0.346,0.192 -0.488,0.18 -0.146,0.004 -0.247,-0.059 -0.326,-0.18 l -2,-3.248 c 3.511,-2.163 6.98,-4.3 10.458,-6.438 l 6.158,2.492 c 0.656,0.539 1.753,0.188 2.384,-0.2 l 3.11,-1.724 -1.19,-1.653 -2.092,1.119 c -0.184,0.109 -0.363,0.163 -0.514,0.175 -0.163,-0.004 -0.313,-0.066 -0.447,-0.167 L 61.86,25.43 c 1.603,-0.985 3.215,-1.975 4.839,-2.964 l -1.04,-1.724 c -2.063,1.261 -4.104,2.513 -6.137,3.766 l -1.44,-0.572 -2.843,1.736 1.445,0.585 c -3.06,1.883 -6.112,3.766 -9.197,5.657 z m -3.048,-4.96 14.575,-8.959 1.774,2.86 c 0.071,0.138 0.078,0.246 0.017,0.359 -0.06,0.112 -0.179,0.229 -0.359,0.346 l -14.032,8.617 z m -7.327,10.951 -14.094,17.744 1.649,1.303 6.091,-7.661 2.325,1.833 -5.941,7.531 1.637,1.277 5.941,-7.519 2.188,1.732 -6.462,8.174 1.716,1.361 14.913,-18.862 -1.724,-1.357 -6.529,8.266 -2.196,-1.724 6.008,-7.611 -1.62,-1.282 -6.016,7.603 -2.333,-1.841 6.095,-7.669 z m -15.831,12.279 0.113,1.123 c 0.029,0.229 -0.01,0.467 -0.104,0.706 -0.098,0.246 -0.259,0.501 -0.476,0.785 l -1.161,1.461 1.19,0.935 1.95,-2.467 c 0.388,-0.493 0.672,-0.959 0.831,-1.403 0.159,-0.445 0.205,-0.856 0.138,-1.269 l -0.029,-2.238 6.175,-7.74 2.192,-0.476 c 0.405,-0.021 0.81,-0.167 1.202,-0.417 0.392,-0.25 0.781,-0.639 1.186,-1.127 l 1.962,-2.451 -1.173,-0.948 -1.169,1.457 c -0.221,0.276 -0.44,0.493 -0.66,0.643 -0.206,0.141 -0.43,0.229 -0.66,0.255 l -1.119,0.142 -1.954,-0.058 -8.922,11.201 z m 100.971,-25.33 0.372,1.532 c 0.116,0.451 0.318,0.815 0.621,1.098 0.287,0.269 0.686,0.459 1.165,0.547 l 3.674,0.681 0.313,-1.67 -2.459,-0.455 c -0.134,-0.025 -0.243,-0.079 -0.326,-0.163 -0.084,-0.086 -0.129,-0.205 -0.158,-0.355 L 124.129,23.4 Z m 3.661,-3.022 c -0.238,0.3 -0.469,0.505 -0.701,0.63 -0.231,0.125 -0.468,0.163 -0.705,0.129 l -2.455,-0.463 -0.317,1.691 3.678,0.685 c 0.301,0.059 0.596,0.068 0.872,0.042 0.292,-0.028 0.564,-0.104 0.811,-0.233 0.264,-0.104 0.547,-0.318 0.852,-0.639 0.301,-0.318 0.618,-0.756 0.99,-1.282 z m -13.915,1.11 c -0.259,0.305 -0.517,0.523 -0.769,0.647 -0.257,0.126 -0.518,0.163 -0.775,0.113 l -1.641,-0.313 -0.318,1.666 2.885,0.547 c 0.313,0.059 0.644,0.073 0.939,0.046 0.305,-0.027 0.602,-0.104 0.885,-0.201 0.256,-0.104 0.542,-0.314 0.869,-0.634 0.325,-0.318 0.668,-0.748 1.052,-1.29 z m -1.457,-3.974 0.484,1.528 c 0.138,0.472 0.395,0.858 0.756,1.148 0.356,0.286 0.818,0.472 1.378,0.576 l 2.676,0.501 0.312,-1.691 -1.564,-0.292 c -0.227,-0.038 -0.389,-0.109 -0.526,-0.205 -0.134,-0.092 -0.226,-0.209 -0.292,-0.363 l -0.201,-0.647 z m 10.896,-1.637 4.125,0.776 -0.138,0.768 c -0.017,0.109 -0.088,0.175 -0.205,0.209 -0.133,0.029 -0.296,0.033 -0.514,-0.008 l -3.477,-0.643 z m 0.468,-2.505 4.129,0.768 -0.188,1.006 -4.142,-0.772 z m -10.592,-3.703 -0.305,1.678 8.008,1.495 -0.188,1.006 -8.563,-1.62 -0.28,1.486 8.567,1.628 -0.204,1.098 -8.011,-1.494 -0.309,1.674 8.016,1.503 -0.99,5.344 c -0.029,0.121 -0.083,0.201 -0.204,0.238 -0.108,0.034 -0.247,0.037 -0.442,0 l -1.111,-0.205 -0.305,1.674 1.796,0.342 c 0.914,0.159 1.633,0.149 2.142,-0.038 0.526,-0.193 0.83,-0.568 0.936,-1.131 l 1.056,-5.703 4.479,0.839 c 1.712,0.322 2.656,0 2.835,-0.943 l 0.238,-1.344 1.778,0.325 0.275,-1.494 -1.766,-0.334 0.488,-2.685 -7.047,-1.303 0.188,-1.019 -2.877,-0.535 -0.188,1.01 z m 7.428,-3.473 -0.218,1.177 -10.692,-1.996 -2.9,15.681 c -0.025,0.113 -0.084,0.179 -0.192,0.208 -0.108,0.038 -0.259,0.033 -0.442,0.004 l -0.873,-0.159 -0.355,1.845 1.462,0.267 c 0.964,0.184 1.727,0.13 2.279,-0.142 0.554,-0.271 0.89,-0.769 1.036,-1.482 l 2.555,-13.827 21.154,3.933 0.342,-1.837 -10.036,-1.871 0.218,-1.181 z m 30.807,26.477 -1.174,4.776 c -0.137,0.501 -0.094,0.972 0.096,1.395 0.19,0.425 0.539,0.801 1.045,1.135 l 1.791,1.207 1.173,-1.745 -0.78,-0.513 c -0.143,-0.104 -0.23,-0.23 -0.285,-0.38 -0.045,-0.155 -0.045,-0.338 0.021,-0.564 l 0.822,-3.507 z m -8.514,-5.67 -2.625,2.326 c -0.217,0.138 -0.41,0.229 -0.556,0.254 -0.159,0.038 -0.28,0.013 -0.38,-0.042 l -1.219,-0.818 -1.123,1.67 2.063,1.386 c 0.529,0.334 1.031,0.522 1.52,0.526 0.48,0.004 0.939,-0.175 1.365,-0.518 l 3.594,-3.035 z m 13.966,0.506 -8.388,-5.599 2.134,-3.194 8.876,5.924 -1.791,2.672 c -0.117,0.175 -0.242,0.284 -0.393,0.305 -0.125,0.034 -0.275,-0.013 -0.438,-0.108 z m -7.82,-12.149 -4.271,6.392 5.336,3.557 -1.248,1.878 -6.534,-4.35 -1.165,1.741 6.525,4.359 -4.262,6.388 2.705,1.808 4.271,-6.396 6.646,4.438 1.161,-1.745 -6.643,-4.434 1.248,-1.879 4.213,2.814 c 1.24,0.818 2.175,0.772 2.793,-0.159 l 3.34,-4.993 z m -3.427,-2.931 -3.314,2.017 c -0.222,0.121 -0.431,0.2 -0.598,0.217 -0.18,0.029 -0.334,-0.009 -0.477,-0.109 l -1.031,-0.693 -1.219,1.829 1.607,1.069 -7.707,11.535 2.514,1.67 8.992,-13.464 3.93,-2.267 z"
       id="path8"
       style="fill:#ffffff" />
  </g>
</svg>
